Coordinates
version=1
nRows=11
nColumns=36
inDegrees=yes

Units are S.I. units (second, meters, Newtons, ...)
If the header above contains a line with 'inDegrees', this indicates whether rotational values are in degrees (yes) or radians (no).

endheader
time	pelvis_tilt	pelvis_list	pelvis_rotation	pelvis_tx	pelvis_ty	pelvis_tz	hip_flexion_r	hip_adduction_r	hip_rotation_r	knee_angle_r	knee_angle_r_beta	ankle_angle_r	subtalar_angle_r	mtp_angle_r	hip_flexion_l	hip_adduction_l	hip_rotation_l	knee_angle_l	knee_angle_l_beta	ankle_angle_l	subtalar_angle_l	mtp_angle_l	lumbar_extension	lumbar_bending	lumbar_rotation	arm_flex_r	arm_add_r	arm_rot_r	elbow_flex_r	pro_sup_r	arm_flex_l	arm_add_l	arm_rot_l	elbow_flex_l	pro_sup_l
      1.41000000	    -11.28286921	      4.62227122	     10.14562749	     -0.46129200	      1.23340038	     -0.52952576	     39.60542471	    -10.40638305	     -0.33248910	     23.11347625	      0.40340626	    -36.43342590	    -17.80688489	     -6.76235125	     44.55197776	    -10.13246500	     -6.10754426	     40.11401754	      0.70012168	    -12.78209823	      2.21724370	     -6.76235125	    -24.23413453	     -1.57572885	      0.28050449	     -4.41339488	    -19.81700425	    -16.95147502	    108.53455216	    113.44688002	     16.07263082	    -40.07670780	      7.22282558	    122.87348967	    102.84503226
      1.42000000	    -10.93988592	      4.83569607	     10.12975618	     -0.45176126	      1.20603265	     -0.52831810	     40.20076410	    -10.45577345	      0.85074277	     24.98232847	      0.43602389	    -38.36149952	    -19.17150933	     -6.79841316	     45.49757171	    -10.31109431	     -6.23077201	     41.61511726	      0.72632081	    -12.41170336	      1.77853293	     -6.79841316	    -24.63514961	     -1.68003171	      0.66317020	     -3.24426841	    -20.20649915	    -17.01825509	    108.78216638	    113.29432735	     17.45561787	    -39.96510792	      7.95175284	    122.81822362	    103.03891385
      1.43000000	    -10.64842557	      4.94163867	      9.92243222	     -0.44233892	      1.17731674	     -0.52683925	     40.80967866	    -10.30914130	      1.89283473	     26.76676194	      0.46716813	    -38.98250222	    -19.90024076	     -6.87451982	     46.67518615	    -10.72699938	     -6.31279935	     43.62740057	      0.76144178	    -11.98975173	      1.01103736	     -6.87451982	    -24.92442791	     -1.78916430	      1.48525763	     -2.12492848	    -20.67571014	    -17.34804087	    109.11649434	    113.17523955	     19.31733654	    -39.74524271	      9.04299366	    122.59223833	    103.73123359
      1.44000000	    -10.46022174	      4.83969776	      9.45994567	     -0.43329463	      1.14750217	     -0.52484285	     41.86559170	     -9.80494036	      2.65452751	     30.36511170	      0.52997118	    -33.40163920	    -21.32980465	     -6.91701631	     48.17004261	    -11.53960429	     -6.41243586	     46.12911897	      0.80510501	    -11.67929227	      0.16819341	     -6.91701631	    -25.07833285	     -1.80333512	      2.16891388	     -0.25679981	    -21.34146650	    -16.75727464	    109.18948660	    111.18445228	     20.56174897	    -39.69174976	      9.47863518	    122.97707340	    102.34907973
      1.45000000	    -10.38453365	      4.91648825	      8.92695494	     -0.42462517	      1.11660560	     -0.52274018	     43.45404332	     -9.34496148	      3.74619312	     36.36449698	      0.63468020	    -18.10847636	    -20.40283189	     -7.03778546	     49.80065241	    -12.22213643	     -6.58710991	     48.92929793	      0.85397735	    -11.81506003	     -1.27885759	     -7.03778546	    -25.10026577	     -2.11026605	      3.36012731	      1.32769023	    -22.06025779	    -16.93899899	    109.16015056	    112.96516814	     22.88215389	    -39.46887576	     10.73899792	    122.66456290	    103.48554522
      1.46000000	    -10.24487908	      4.84413652	      8.24623327	     -0.41645003	      1.08549199	     -0.52061988	     44.80319518	     -8.52646386	      5.21270668	     42.02431087	      0.73346259	     -3.82447411	    -19.88175465	     -7.08803948	     51.48828381	    -13.09491489	     -6.57966287	     52.03110750	      0.90811414	    -11.62054657	     -2.34757047	     -7.08803948	    -25.14404400	     -2.27675665	      4.26778425	      3.83678934	    -23.03722315	    -15.89286605	    108.68423433	    110.47961774	     24.71032435	    -39.32794374	     11.50778097	    122.84420330	    101.81198568
      1.47000000	    -10.30863690	      4.69924416	      6.96046654	     -0.40999142	      1.05563503	     -0.51899851	     46.80651265	     -7.59570134	      6.36439910	     46.88736028	      0.81833881	      5.64306621	    -18.13647099	     -7.12179364	     53.18071834	    -14.16124356	     -6.56052834	     54.78400220	      0.95616122	    -12.27870370	     -3.44844911	     -7.12179364	    -25.39805357	     -2.45194910	      5.70528832	      6.83288562	    -24.44955432	    -14.90707116	    108.29288958	    110.51084346	     26.56091523	    -38.79026732	     11.90745068	    123.08593708	    101.90107835
      1.48000000	    -11.21402676	      4.26813424	      4.92046946	     -0.40585038	      1.02695067	     -0.51838207	     51.20969311	     -6.24236021	      6.94923709	     52.63390298	      0.91863491	      9.49150033	    -16.84276570	     -7.15038514	     55.56373518	    -15.62401267	     -6.48751314	     57.21298738	      0.99855500	    -13.13081292	     -5.10699501	     -7.15038514	    -24.97827330	     -2.47046519	      7.63234792	     10.80908411	    -26.16257151	    -13.30895083	    107.09311826	    111.11564138	     27.84849316	    -37.69655490	     11.64834483	    123.19850609	    102.53246536
      1.49000000	    -12.05812018	      3.81713248	      2.65438722	     -0.40254948	      0.99992479	     -0.51860742	     56.86332785	     -4.67099774	      7.02063263	     59.81540241	      1.04397572	      9.69434191	    -16.36062088	     -7.16591603	     57.78959134	    -17.10029326	     -6.13986643	     60.18354544	      1.05040102	    -11.04457269	     -7.47894188	     -7.16591603	    -24.94324242	     -2.43797464	      9.99073043	     14.90545068	    -28.17715865	    -11.65735442	    106.25054423	    110.13915212	     29.52892839	    -36.31510141	     11.90521952	    123.50005536	    101.82821824
      1.50000000	    -12.81329601	      3.36273296	      0.91216724	     -0.39915402	      0.97345498	     -0.51945772	     62.28832369	     -3.49883977	      6.44528812	     66.74513546	      1.16492237	      9.28050699	    -15.46941776	     -7.17923264	     60.17441900	    -18.00402438	     -5.01854699	     64.35775617	      1.12325474	     -5.84513296	    -11.61958261	     -7.17923264	    -25.01526534	     -2.22995045	     11.74424465	     19.41119569	    -29.82534859	     -9.75473212	    105.13779404	    109.39165101	     31.29186452	    -35.11032392	     12.05869713	    123.61267439	    101.26735683
      1.51000000	    -13.59856652	      2.49834782	     -0.63069579	     -0.39579438	      0.94697976	     -0.52029947	     66.58711182	     -2.37708459	      5.21828643	     72.10548908	      1.25847819	     10.21974775	    -14.34352785	     -7.19469846	     62.94301498	    -19.07885899	     -3.21754910	     69.49534218	      1.21292254	      2.20352608	    -13.18058038	     -7.19469846	    -25.09660185	     -1.31737084	     11.46615736	     26.75216137	    -30.50404872	     -4.45125467	    102.31223798	    110.84672670	     30.47494401	    -35.27337121	      8.87355308	    125.07364716	    102.90568950
